<?xml version="1.0"?>
<svg xmlns="http://www.w3.org/2000/svg" xmlns:xlink="http://www.w3.org/1999/xlink" version="1.1" id="Layer_1" x="0px" y="0px" viewBox="0 0 512 512" style="enable-background:new 0 0 512 512;" xml:space="preserve" width="512px" height="512px" class=""><g><g>
	<g>
		<path d="M432,32h-32V16c0-8.844-7.156-16-16-16c-8.844,0-16,7.156-16,16v16h-64V16c0-8.844-7.156-16-16-16    c-8.844,0-16,7.156-16,16v16h-64V16c0-8.844-7.156-16-16-16s-16,7.156-16,16v16h-64V16c0-8.844-7.156-16-16-16S80,7.156,80,16v16    H48C21.532,32,0,53.532,0,80v384c0,8.844,7.156,16,16,16h264.377C265.011,457.098,256,429.591,256,400    c0-79.406,64.594-144,144-144c29.591,0,57.098,9.011,80,24.377V80C480,53.532,458.468,32,432,32z M112,416H80    c-8.844,0-16-7.156-16-16c0-8.844,7.156-16,16-16h32c8.844,0,16,7.156,16,16C128,408.844,120.844,416,112,416z M112,352H80    c-8.844,0-16-7.156-16-16c0-8.844,7.156-16,16-16h32c8.844,0,16,7.156,16,16C128,344.844,120.844,352,112,352z M112,288H80    c-8.844,0-16-7.156-16-16c0-8.844,7.156-16,16-16h32c8.844,0,16,7.156,16,16S120.844,288,112,288z M112,224H80    c-8.844,0-16-7.156-16-16s7.156-16,16-16h32c8.844,0,16,7.156,16,16S120.844,224,112,224z M208,416h-32c-8.844,0-16-7.156-16-16    c0-8.844,7.156-16,16-16h32c8.844,0,16,7.156,16,16C224,408.844,216.844,416,208,416z M208,352h-32c-8.844,0-16-7.156-16-16    c0-8.844,7.156-16,16-16h32c8.844,0,16,7.156,16,16C224,344.844,216.844,352,208,352z M208,288h-32c-8.844,0-16-7.156-16-16    c0-8.844,7.156-16,16-16h32c8.844,0,16,7.156,16,16S216.844,288,208,288z M208,224h-32c-8.844,0-16-7.156-16-16s7.156-16,16-16h32    c8.844,0,16,7.156,16,16S216.844,224,208,224z M304,288h-32c-8.844,0-16-7.156-16-16c0-8.844,7.156-16,16-16h32    c8.844,0,16,7.156,16,16S312.844,288,304,288z M304,224h-32c-8.844,0-16-7.156-16-16s7.156-16,16-16h32c8.844,0,16,7.156,16,16    S312.844,224,304,224z M400,224h-32c-8.844,0-16-7.156-16-16s7.156-16,16-16h32c8.844,0,16,7.156,16,16S408.844,224,400,224z     M448,128H32V80c0-8.828,7.172-16,16-16h32v16c0,8.844,7.156,16,16,16s16-7.156,16-16V64h64v16c0,8.844,7.156,16,16,16    s16-7.156,16-16V64h64v16c0,8.844,7.156,16,16,16c8.844,0,16-7.156,16-16V64h64v16c0,8.844,7.156,16,16,16c8.844,0,16-7.156,16-16    V64h32c8.828,0,16,7.172,16,16V128z" data-original="#000000" class="active-path" data-old_color="#000000" fill="#420042"/>
	</g>
</g><g>
	<g>
		<path d="M400,288c-61.75,0-112,50.25-112,112s50.25,112,112,112s112-50.25,112-112S461.75,288,400,288z M464,416h-64    c-8.844,0-16-7.156-16-16v-64c0-8.844,7.156-16,16-16c8.844,0,16,7.156,16,16v48h48c8.844,0,16,7.156,16,16    C480,408.844,472.844,416,464,416z" data-original="#000000" class="active-path" data-old_color="#000000" fill="#420042"/>
	</g>
</g></g> </svg>
