<?xml version="1.0"?>
<svg xmlns="http://www.w3.org/2000/svg" xmlns:xlink="http://www.w3.org/1999/xlink" version="1.1" id="Capa_1" x="0px" y="0px" viewBox="0 0 512.001 512.001" style="enable-background:new 0 0 512.001 512.001;" xml:space="preserve" width="512px" height="512px"><g><g>
	<g>
		<path d="M392.361,367.078c20.013-27.881,37.299-51.958,37.388-98.472c0.079-39.297-24.817-80.749-60.533-100.818    c-12.033-6.746-33.662-15.523-56.694-8.687c0,0.011,0.011,0.022,0.011,0.045c6.578,13.592,13.749,32.898,12.459,50.554    c-0.393,5.444-1.335,10.877-2.828,16.231c23.897,36.625,15.232,72.566,6.095,110.482c-3.131,12.998-6.375,26.445-8.62,40.846    l-0.573,3.625c-2.918,18.621-6.219,39.734-7.217,63.204c-1.167,27.376,5.433,46.884,19.609,57.974    c5.893,4.612,12.964,7.711,20.537,9.695c6.163,1.615,11.066-5.122,7.801-10.593c-0.029-0.048-0.058-0.097-0.087-0.145    c-12.167-20.496-14.333-43.999-6.095-66.168C364.222,406.286,379.173,385.453,392.361,367.078z" data-original="#000000" class="active-path" data-old_color="#000000" fill="#420042"/>
	</g>
</g><g>
	<g>
		<path d="M290.175,239.03c-3.671-4.725-4.558-11.045-2.324-16.599c1.997-4.984,3.187-10.08,3.558-15.165    c0.943-12.874-7.935-33.313-16.589-46.862c-1.292-2.029-2.752-4.365-4.37-6.995c-2.402-3.902-8.278-3.149-9.63,1.229    c-0.01,0.033-0.02,0.065-0.03,0.098c-1.022,3.266-1.931,5.926-2.728,7.992c-4.433,11.438-6.723,22.629-6.611,32.349    c0.123,10.46,2.862,19.261,8.373,26.905c5.028,6.959,4.018,16.589-2.357,22.348c-0.516,0.459-1.84,1.987-2.918,3.21    c-5.814,6.656-15.546,17.791-33.684,27.028c-20.837,10.606-47.748,15.939-79.983,15.836c-0.001,0-0.002,0.001-0.003,0.001    c-11.348,16.893-25.49,37.018-34.167,46.772l-1.156,1.29c-11,12.336-23.481,26.321-23.302,32.563    c0.293,9.877,4.928,29.621,20.463,40.902c14.625,10.618,36.109,11.865,63.867,3.727c8.475-2.492,16.253-5.455,23.784-8.306    c11.337-4.31,22.034-8.373,32.832-9.867c48.455-6.679,57.356-20.171,62.149-27.422c0.55-0.842,1.145-1.728,1.773-2.627    c0.003-0.009,0.007-0.018,0.011-0.027c2.385-13.906,5.43-26.596,8.397-38.889C305.507,287.104,309.806,264.308,290.175,239.03z     M110.549,389.863c-9.439,0-16.432-7.711-16.836-16.836c-0.405-9.091,8.025-16.836,16.836-16.836    c9.439,0,16.432,7.722,16.836,16.836C127.79,382.118,119.36,389.863,110.549,389.863z M262.382,310.473    c-10.237,10.237-23.886,15.849-38.174,15.848c-1.987,0-3.974-0.112-5.983-0.336c-9.237-1.01-15.917-9.328-14.906-18.565    c1.021-9.249,9.327-15.917,18.576-14.906c6.195,0.685,12.279-1.447,16.679-5.859c6.578-6.566,17.229-6.566,23.807,0    C268.96,293.232,268.96,303.895,262.382,310.473z" data-original="#000000" class="active-path" data-old_color="#000000" fill="#420042"/>
	</g>
</g><g>
	<g>
		<path d="M217.833,196.882c-14.39,9.148-31.047,12.436-42.002,12.596c-0.078,0-0.168,0-0.247,0c-6.117,0-11.763-3.323-14.727-8.677    l-1.875-3.379c-16.388,17.936-35.795,38.903-70.669,42.473c12.74,9.001,30.553,16.847,53.462,16.836    c52.889,0,73.015-15.839,83.6-27.107C220.662,219.678,218.147,208.701,217.833,196.882z" data-original="#000000" class="active-path" data-old_color="#000000" fill="#420042"/>
	</g>
</g><g>
	<g>
		<path d="M97.817,2.69c-5.894-6.937-16.672,0.842-11.953,8.626L184.8,174.523c8.518-1.897,29.972-16.033,34.989-27.481    C214.394,140.039,148.707,62.594,97.817,2.69z" data-original="#000000" class="active-path" data-old_color="#000000" fill="#420042"/>
	</g>
</g></g> </svg>
