<?xml version="1.0"?>
<svg xmlns="http://www.w3.org/2000/svg" xmlns:xlink="http://www.w3.org/1999/xlink" version="1.1" id="Capa_1" x="0px" y="0px" viewBox="0 0 26.931 26.931" style="enable-background:new 0 0 26.931 26.931;" xml:space="preserve" width="512px" height="512px" class=""><g><g>
	<path d="M26.931,14.542v-4.61c0-1.733-0.009-3.21-0.015-3.811l-5.733,4.021L26.931,14.542z" data-original="#000000" class="active-path" data-old_color="#000000" fill="#420042"/>
	<path d="M0,14.37V9.761c0-1.732,0.009-3.209,0.014-3.81l5.734,4.021L0,14.37z" data-original="#000000" class="active-path" data-old_color="#000000" fill="#420042"/>
	<polygon points="13.492,12.501 25.326,4.202 2.17,4.202 1.658,4.198  " data-original="#000000" class="active-path" data-old_color="#000000" fill="#420042"/>
	<path d="M18.73,11.274l-4.807,3.373c-0.124,0.088-0.279,0.13-0.432,0.13c-0.15,0-0.301-0.042-0.431-0.13l-4.794-3.366l-8.051,6.162   C0.15,17.491,0.077,17.527,0,17.552v0.086l0.02,5.095h26.879l0.019-5.095v-0.104L18.73,11.274z M22.47,18.3   c-0.231,0.216-0.491,0.46-0.535,0.587c-0.04,0.125,0.024,0.477,0.081,0.787c0.105,0.566,0.203,1.099-0.057,1.284   C21.902,21,21.832,21.02,21.75,21.021c-0.264,0.005-0.65-0.21-1.025-0.419c-0.275-0.153-0.588-0.326-0.723-0.327   c-0.139,0.002-0.448,0.171-0.723,0.321c-0.367,0.199-0.745,0.404-1.01,0.408c-0.092,0.001-0.169-0.021-0.23-0.065   c-0.258-0.19-0.152-0.723-0.045-1.286c0.062-0.308,0.131-0.658,0.091-0.786c-0.041-0.127-0.3-0.374-0.53-0.59   c-0.415-0.395-0.809-0.77-0.709-1.074c0.102-0.304,0.641-0.368,1.209-0.438c0.312-0.039,0.669-0.083,0.776-0.159   c0.107-0.079,0.263-0.4,0.397-0.686c0.245-0.515,0.479-1,0.795-1.005l0.006,0.001c0.321,0,0.549,0.491,0.789,1.012   c0.135,0.287,0.284,0.611,0.391,0.689c0.109,0.079,0.464,0.125,0.777,0.168c0.568,0.074,1.105,0.145,1.204,0.448   C23.287,17.54,22.891,17.908,22.47,18.3z" data-original="#000000" class="active-path" data-old_color="#000000" fill="#420042"/>
	<g>
	</g>
	<g>
	</g>
	<g>
	</g>
	<g>
	</g>
	<g>
	</g>
	<g>
	</g>
	<g>
	</g>
	<g>
	</g>
	<g>
	</g>
	<g>
	</g>
	<g>
	</g>
	<g>
	</g>
	<g>
	</g>
	<g>
	</g>
	<g>
	</g>
</g></g> </svg>
