<?xml version="1.0"?>
<svg xmlns="http://www.w3.org/2000/svg" height="512px" viewBox="0 -44 511.99865 511" width="512px" class=""><g><path d="m181.527344 98.972656c-10.71875-16.875-33.085938-21.863281-49.960938-11.144531-16.871094 10.71875-21.859375 33.085937-11.144531 49.957031 10.71875 16.875 33.085937 21.863282 49.960937 11.144532s21.863282-33.085938 11.144532-49.957032zm0 0" fill="#ff738b" data-original="#FF738B" class="" style="fill:#FFFFFF" data-old_color="#ff738b"/><path d="m181.527344 98.972656c-10.71875-16.875-33.085938-21.863281-49.960938-11.144531-16.871094 10.71875-21.859375 33.085937-11.144531 49.957031 10.71875 16.875 33.085937 21.863282 49.960937 11.144532s21.863282-33.085938 11.144532-49.957032zm0 0" fill="#ff738b" data-original="#FF738B" class="" style="fill:#FFFFFF" data-old_color="#ff738b"/><path d="m181.523438 98.976562c-8.867188-13.960937-25.703126-19.773437-40.808594-15.300781 8.257812 2.335938 15.722656 7.59375 20.6875 15.410157 10.71875 16.871093 5.726562 39.238281-11.148438 49.957031-2.914062 1.851562-5.992187 3.226562-9.148437 4.160156 9.574219 2.707031 20.214843 1.488281 29.273437-4.265625 16.875-10.71875 21.863282-33.089844 11.144532-49.960938zm0 0" fill="#ee4a84" data-original="#EE4A84" class="active-path" style="fill:#FFD3E3" data-old_color="#ee4a84"/><path d="m212.976562 148.480469c-10.71875-16.875-33.085937-21.863281-49.960937-11.144531-16.871094 10.71875-21.863281 33.085937-11.144531 49.957031 10.71875 16.875 33.085937 21.863281 49.960937 11.144531 16.871094-10.71875 21.863281-33.085938 11.144531-49.957031zm0 0" fill="#ff6914" data-original="#FF6914"/><path d="m212.976562 148.480469c-10.71875-16.875-33.085937-21.863281-49.960937-11.144531-16.871094 10.71875-21.863281 33.085937-11.144531 49.957031 10.71875 16.875 33.085937 21.863281 49.960937 11.144531 16.871094-10.71875 21.863281-33.085938 11.144531-49.957031zm0 0" fill="#ff6914" data-original="#FF6914"/><path d="m212.972656 148.484375c-8.867187-13.960937-25.703125-19.773437-40.808594-15.300781 8.257813 2.335937 15.71875 7.59375 20.683594 15.410156 10.71875 16.871094 5.730469 39.238281-11.144531 49.957031-2.914063 1.851563-5.996094 3.226563-9.148437 4.160157 9.574218 2.707031 20.214843 1.488281 29.273437-4.265626 16.871094-10.71875 21.863281-33.085937 11.144531-49.960937zm0 0" fill="#ed500a" data-original="#ED500A"/><path d="m244.425781 197.988281c-10.71875-16.875-33.085937-21.863281-49.960937-11.144531s-21.863282 33.085938-11.144532 49.957031c10.71875 16.875 33.085938 21.863281 49.960938 11.144531 16.871094-10.71875 21.859375-33.085937 11.144531-49.957031zm0 0" fill="#fab700" data-original="#FAB700" class=""/><path d="m244.425781 197.988281c-10.71875-16.875-33.085937-21.863281-49.960937-11.144531s-21.863282 33.085938-11.144532 49.957031c10.71875 16.875 33.085938 21.863281 49.960938 11.144531 16.871094-10.71875 21.859375-33.085937 11.144531-49.957031zm0 0" fill="#fad200" data-original="#FAD200" class=""/><path d="m244.417969 197.992188c-8.863281-13.960938-25.703125-19.773438-40.808594-15.300782 8.257813 2.335938 15.722656 7.59375 20.6875 15.410156 10.71875 16.871094 5.726563 39.238282-11.144531 49.957032-2.917969 1.851562-5.996094 3.226562-9.152344 4.160156 9.574219 2.707031 20.214844 1.488281 29.273438-4.265625 16.875-10.71875 21.863281-33.089844 11.144531-49.960937zm0 0" fill="#fab700" data-original="#FAB700" class=""/><path d="m275.871094 247.492188c-10.71875-16.871094-33.085938-21.863282-49.957032-11.144532-16.875 10.71875-21.863281 33.085938-11.144531 49.960938 10.71875 16.871094 33.085938 21.863281 49.957031 11.144531 16.875-10.71875 21.863282-33.085937 11.144532-49.960937zm0 0" fill="#1dc2ff" data-original="#1DC2FF" class=""/><path d="m275.871094 247.492188c-10.71875-16.871094-33.085938-21.863282-49.957032-11.144532-16.875 10.71875-21.863281 33.085938-11.144531 49.960938 10.71875 16.871094 33.085938 21.863281 49.957031 11.144531 16.875-10.71875 21.863282-33.085937 11.144532-49.960937zm0 0" fill="#1dc2ff" data-original="#1DC2FF" class=""/><path d="m275.867188 247.5c-8.867188-13.960938-25.703126-19.773438-40.808594-15.300781 8.257812 2.335937 15.722656 7.59375 20.683594 15.410156 10.71875 16.871094 5.730468 39.238281-11.144532 49.957031-2.914062 1.851563-5.996094 3.226563-9.148437 4.15625 9.574219 2.710938 20.214843 1.492188 29.273437-4.265625 16.875-10.714843 21.863282-33.082031 11.144532-49.957031zm0 0" fill="#00a2ff" data-original="#00A2FF"/><path d="m86.625 123.671875c-8.179688 5.199219-19.023438 2.777344-24.222656-5.402344l-16.414063-25.84375-39.980469-81.691406c-2.601562-7.652344 6.828126-13.640625 12.648438-8.035156l56.957031 70.910156 16.414063 25.84375c5.195312 8.179687 2.777344 19.023437-5.402344 24.21875zm0 0" fill="#ff6914" data-original="#FF6914"/><path d="m59.476562 73.609375 29.351563 48.382813c6.359375-5.613282 7.890625-15.152344 3.199219-22.539063l-16.414063-25.84375-56.957031-70.910156c-4.730469-4.554688-11.839844-1.453125-12.945312 3.972656zm0 0" fill="#ed500a" data-original="#ED500A"/><path d="m258.410156 290.214844s-106.464844-167.640625-106.597656-167.851563c-16.0625-25.289062-49.582031-32.765625-74.867188-16.703125l-51.78125 32.890625c-25.285156 16.0625-32.761718 49.582031-16.699218 74.867188 16.058594 25.285156 49.578125 32.765625 74.867187 16.703125l5.976563-3.796875 77.53125 122.054687zm0 0" fill="#ff738b" data-original="#FF738B" class="" style="fill:#FFFFFF" data-old_color="#ff738b"/><path d="m151.8125 122.363281c-16.0625-25.285156-49.582031-32.765625-74.867188-16.703125l-3.261718 2.070313c20.40625-2.84375 41.539062 6.105469 53.308594 24.632812.132812.207031 109.207031 171.960938 109.207031 171.960938l22.210937-14.109375s-106.464844-167.640625-106.597656-167.851563zm0 0" fill="#ee4a84" data-original="#EE4A84" class="active-path" style="fill:#FFD3E3" data-old_color="#ee4a84"/><path d="m395.75 319.878906-47.472656-47.472656 82.175781-82.175781c12.667969-12.667969 33.203125-12.667969 45.867187 0l1.605469 1.601562c12.664063 12.667969 12.664063 33.203125 0 45.871094zm0 0" fill="#fab700" data-original="#FAB700" class=""/><path d="m420.324219 390.246094-47.472657-47.472656 82.175782-82.175782c12.667968-12.667968 33.203125-12.667968 45.867187 0l1.605469 1.601563c12.664062 12.667969 12.664062 33.203125 0 45.871093zm0 0" fill="#1dc2ff" data-original="#1DC2FF" class=""/><path d="m395.75 319.878906-47.472656-47.472656 82.175781-82.175781c12.667969-12.667969 33.203125-12.667969 45.867187 0l1.605469 1.601562c12.664063 12.667969 12.664063 33.203125 0 45.871094zm0 0" fill="#fad200" data-original="#FAD200" class=""/><path d="m420.324219 390.246094-47.472657-47.472656 82.175782-82.175782c12.667968-12.667968 33.203125-12.667968 45.867187 0l1.605469 1.601563c12.664062 12.667969 12.664062 33.203125 0 45.871093zm0 0" fill="#1dc2ff" data-original="#1DC2FF" class=""/><path d="m477.125 191.03125c-9.191406-9.191406-22.382812-11.929688-33.96875-8.230469 5.066406 1.554688 9.835938 4.332031 13.84375 8.339844 13.109375 13.109375 13.109375 34.363281 0 47.472656l-71.257812 71.257813 10.007812 10.007812 81.375-81.375c13.105469-13.109375 13.105469-34.363281 0-47.472656zm0 0" fill="#fab700" data-original="#FAB700" class=""/><path d="m501.699219 261.398438c-9.191407-9.191407-22.382813-11.929688-33.964844-8.230469 5.0625 1.554687 9.832031 4.332031 13.839844 8.339843 13.109375 13.109376 13.109375 34.363282 0 47.472657l-71.257813 71.257812 10.007813 10.007813 81.375-81.375c13.109375-13.109375 13.109375-34.363282 0-47.472656zm0 0" fill="#00a2ff" data-original="#00A2FF"/><path d="m79.03125 165.378906c0 7.632813-6.1875 13.820313-13.820312 13.820313-7.632813 0-13.820313-6.1875-13.820313-13.820313 0-7.628906 6.1875-13.816406 13.820313-13.816406 7.632812 0 13.820312 6.1875 13.820312 13.816406zm0 0" fill="#0882bf" data-original="#0882BF" class="" style="fill:#0882BF"/><path d="m409.339844 423.039062h-241.539063c-41.664062 0-75.4375-33.777343-75.4375-75.441406v-5.273437c0-41.664063 33.773438-75.441407 75.4375-75.441407h241.539063c41.664062 0 75.441406 33.777344 75.441406 75.441407v5.273437c0 41.664063-33.777344 75.441406-75.441406 75.441406zm0 0" fill="#ff738b" data-original="#FF738B" class="" style="fill:#FFFFFF" data-old_color="#ff738b"/><path d="m406.703125 266.882812h-.789063c5.683594 10.828126 8.914063 23.144532 8.914063 36.222657 0 43.121093-34.957031 78.078125-78.078125 78.078125h-235.476562c13.058593 24.875 39.121093 41.855468 69.164062 41.855468h236.265625c43.121094 0 78.078125-34.957031 78.078125-78.078124 0-43.121094-34.957031-78.078126-78.078125-78.078126zm0 0" fill="#ee4a84" data-original="#EE4A84" class="active-path" style="fill:#FFD3E3" data-old_color="#ee4a84"/></g> </svg>
