<?xml version="1.0"?>
<svg xmlns="http://www.w3.org/2000/svg" height="512px" viewBox="0 -60 511.99928 511" width="512px" class=""><g><path d="m95.582031 157.824219 61.742188-61.742188-141.976563-93.871093c-8.941406-5.910157-19.546875 4.695312-13.636718 13.632812zm0 0" fill="#ff5d9c" data-original="#FF5D9C" class=""/><path d="m52.660156 92.90625s-26.296875-9.027344-22.121094-41.601562c4.175782-32.574219.96875-38.410157.96875-38.410157s22.664063 3.410157 26.5 17.519531c-.003906 0 34.253907 16.089844-5.347656 62.492188zm0 0" fill="#ff83b4" data-original="#FF83B4" class=""/><path d="m83.574219 139.660156s-40.949219-18.855468-28.597657-63.910156c10.257813-37.410156 3.03125-45.335938 3.03125-45.335938s37.828126 5.300782 42.515626 28.109376c-.003907 0 28.410156 31.5-16.949219 81.136718zm0 0" fill="#ffabcd" data-original="#FFABCD" class=""/><path d="m95.582031 157.824219s-26.796875-21.933594-8.40625-61.035157c16.78125-35.675781 13.34375-38.265624 13.34375-38.265624s28.964844 1.578124 56.804688 37.558593zm0 0" fill="#ffd2e3" data-original="#FFD2E3"/><path d="m68.410156 337.761719c-30.230468-8.648438-47.683594-40.183594-38.984375-70.398438 21.128907-73.394531 76.636719-193.117187 213.90625-193.117187 197.941407 0 200.367188 316.945312 200.367188 316.945312h-197.128907c-23.238281 0-42.328124-18.449218-43-41.679687-.378906-13.160157-2.238281-28.691407-7.023437-45.46875-5.082031-17.835938-26.941406-24.328125-41.140625-12.394531-8.476562 7.125-18.058594 16.296874-27.597656 27.722656-14.460938 17.316406-37.707032 24.59375-59.398438 18.390625zm0 0" fill="#fcf5af" data-original="#FCF5AF" class="active-path" style="fill:#FFFFFF" data-old_color="#fcf5af"/><path d="m357.3125 249.996094s-20.785156 100.121094 50.503906 131.304687c41.820313 18.292969 75.851563 7.78125 96.84375-4.035156 9.773438-5.5 9.816406-19.609375-.050781-24.933594-10.46875-5.648437-21.402344-15.324219-25.5-31.738281-8.753906-35.046875-48.277344-85.367188-121.796875-70.597656zm0 0" fill="#5ad6ff" data-original="#5AD6FF"/><path d="m482.097656 329.15625c-1.207031-2.628906-2.222656-5.476562-2.996094-8.5625-8.753906-35.046875-48.277343-85.367188-121.792968-70.597656 0 0-5.675782 27.371094-.910156 57.945312 21.867187 16.714844 72.101562 46.738282 125.699218 21.214844zm0 0" fill="#00c5fd" data-original="#00C5FD"/><path d="m320.617188 188.394531s-1.914063 99.242188 74.917968 112.332031c40.894532 6.96875 73.824219-4.304687 95.675782-16.375 11.039062-6.09375 9.605468-22.214843-2.285157-26.40625-21.074219-7.429687-47.894531-25.925781-65.5625-71.132812-1.820312 1.261719-102.746093 1.582031-102.746093 1.582031zm0 0" fill="#76e7e7" data-original="#76E7E7"/><path d="m452.066406 233.722656c-10.539062-11.011718-20.585937-26.132812-28.703125-46.910156-1.820312 1.257812-102.746093 1.582031-102.746093 1.582031s-.328126 16.972657 4.722656 37.804688c22.859375 12.640625 69.308594 30.890625 126.726562 7.523437zm0 0" fill="#2eddda" data-original="#2EDDDA" class=""/><path d="m263.519531 109.507812s16.3125 122.785157 167.300781 99.644532c12.226563-1.871094 17.199219-16.890625 8.484376-25.675782-7.375-7.433593-14.421876-17.625-18.410157-31.40625-10.890625-37.613281-58.398437-78.191406-88.089843-73.242187-29.695313 4.949219-69.285157 30.679687-69.285157 30.679687zm0 0" fill="#ffabcd" data-original="#FFABCD" class=""/><path d="m332.800781 78.828125c-29.691406 4.949219-69.28125 30.679687-69.28125 30.679687s2.699219 20.316407 16.0625 42.867188c25.800781 4.121094 77.605469 5.144531 117.304688-40.421875-19.273438-21.101563-45.257813-36.261719-64.085938-33.125zm0 0" fill="#ff83b4" data-original="#FF83B4" class=""/><path d="m174.914062 94.921875c-.496093-7.253906 27.011719-64.199219 103.308594-52.28125 29.53125 4.613281 52.792969 5.410156 70.210938 4.65625 15.679687-.683594 24.773437 17.570313 14.769531 29.671875-23.496094 28.421875-60.519531 62.84375-100.199219 59.695312-66.722656-5.296874-88.089844-41.742187-88.089844-41.742187zm0 0" fill="#a4e7ff" data-original="#A4E7FF" class=""/><path d="m203.121094 98.207031c-6.742188-11.015625-19.320313-25.96875-40.539063-33.335937-7.097656-2.460938-14.757812 1.796875-16.433593 9.121094-2.878907 12.566406-4.054688 31.921874 11.613281 44.453124 13.910156 11.128907 28.765625 7.402344 39.003906 2.105469 8.1875-4.234375 11.167969-14.484375 6.355469-22.34375zm0 0" fill="#f2ad9a" data-original="#F2AD9A" class=""/><path d="m36.574219 244.882812c-2.734375 7.824219-5.101563 15.371094-7.148438 22.480469-8.699219 30.214844 8.753907 61.75 38.984375 70.394531 21.691406 6.207032 44.9375-1.070312 59.398438-18.390624 9.539062-11.421876 19.117187-20.59375 27.59375-27.71875-40.65625-45.078126-100.921875-47.207032-118.828125-46.765626zm0 0" fill="#f2ad9a" data-original="#F2AD9A" class=""/><path d="m75.828125 287.089844c4.996094-9.078125 3.566406-19.453125-3.195313-23.175782-6.761718-3.722656-16.292968.621094-21.289062 9.699219s-3.566406 19.453125 3.195312 23.175781c6.761719 3.71875 16.292969-.621093 21.289063-9.699218zm0 0" fill="#dd6642" data-original="#DD6642"/><path d="m113.425781 195.84375c-4.265625 0-7.726562-3.457031-7.726562-7.726562v-12.824219c0-4.269531 3.460937-7.726563 7.726562-7.726563 4.269531 0 7.726563 3.457032 7.726563 7.726563v12.824219c0 4.269531-3.457032 7.726562-7.726563 7.726562zm0 0" fill="#454545" data-original="#454545" class=""/></g> </svg>
