<?xml version="1.0"?>
<svg xmlns="http://www.w3.org/2000/svg" xmlns:xlink="http://www.w3.org/1999/xlink" version="1.1" id="Capa_1" x="0px" y="0px" viewBox="0 0 512 512" style="enable-background:new 0 0 512 512;" xml:space="preserve" width="512px" height="512px" class=""><g><path style="fill:#BA52E9" d="M375.34,512c-20.134,0-43.239-3.947-61.394-18.098c-21.315-16.615-31.355-43.089-29.84-78.687  c0.988-23.211,4.156-43.436,6.952-61.279l0.515-3.297c2.255-14.425,5.369-27.343,8.38-39.836  c9.133-37.889,13.062-58.739-4.896-81.869c-3.356-4.322-4.166-10.1-2.129-15.178c1.829-4.558,2.925-9.228,3.26-13.879  c0.86-11.775-7.263-30.474-15.173-42.87c-2.224-3.487-2.953-7.721-2.024-11.749c0.93-4.03,3.442-7.515,6.969-9.675  c28.626-17.517,63.796-17.033,96.49,1.333c42.615,23.938,71.187,71.815,71.096,119.136c-0.102,52.432-20.373,80.673-39.979,107.986  c-11.47,15.98-23.331,32.503-31.6,54.767c-5.418,14.59-1.255,26.584,3.192,34.077c7.184,12.101,20.205,20.857,33.985,22.852  c7.157,1.037,12.63,6.911,13.155,14.125c0.525,7.212-4.038,13.82-10.97,15.882C419.838,506.183,399.778,512,375.34,512z" data-original="#FF6E23" class="" data-old_color="#FF6E23"/><path style="fill:#FFFFFF" d="M152.072,426.182c-18.022,0-33.609-4.72-46.591-14.143c-22.331-16.21-30.88-43.233-31.416-61.448  c-0.524-17.96,12.558-32.625,29.12-51.191l1.041-1.167c12.519-14.058,39.358-55.66,43.233-61.854  c2.944-4.851,8.343-7.711,14.039-7.381c4.276-1.413,17.664-10.693,41.271-37.398c18.419-20.836,32.169-39.916,34.329-43.952  c0.891-2.375,2.842-8.285,6.522-22.346c2.796-10.686,11.669-18.587,22.606-20.127c10.929-1.535,21.624,3.601,27.254,13.09  c5.698,9.602,10.241,17.061,13.502,22.176c3.66,5.735,21.827,35.671,19.928,61.668c-0.359,4.983-1.227,9.952-2.59,14.849  c21.864,33.508,6.433,129.444-7.971,148.819c-14.404,19.375-20.205,30.626-78.357,38.64c-6.414,0.884-14.238,3.857-23.295,7.297  c-7.092,2.694-15.13,5.749-24.026,8.36C176.792,424.146,163.906,426.181,152.072,426.182z" data-original="#FFEB8C" class="" data-old_color="#FFEB8C"/><path style="fill:#F788EE" d="M159.311,275.941c-60.144,0.002-94.324-43.595-99.97-59.477c-1.893-5.328-0.716-11.266,3.068-15.467  c3.785-4.201,9.568-5.993,15.062-4.663c41.671,10.074,55.738-5.329,75.205-26.646c7.544-8.26,15.344-16.801,25.219-24.238  c25.297-19.056,58.303-20.901,82.129-4.593c5.903,4.04,8.246,11.613,5.66,18.281c-4.06,10.464-6.153,20.695-6.051,29.586  c0.108,9.572,2.614,17.622,7.663,24.612c4.6,6.369,3.669,15.182-2.163,20.449c-0.465,0.419-1.683,1.813-2.661,2.932  c-5.321,6.089-14.227,16.278-30.819,24.729C212.773,271.064,188.433,275.94,159.311,275.941z" data-original="#FE9923" class="" data-old_color="#FE9923"/><path style="fill:#FFDAFC" d="M326.913,202.106c1.899-25.996-16.268-55.933-19.928-61.668c-3.261-5.113-7.805-12.574-13.502-22.176  c-5.63-9.489-16.326-14.625-27.254-13.09c-10.936,1.54-19.81,9.44-22.606,20.127c-3.679,14.06-5.631,19.97-6.522,22.346  c-1.624,3.034-9.8,14.572-21.583,28.965V411.4c8.707-3.307,16.259-6.131,22.478-6.988c58.152-8.013,63.954-19.266,78.357-38.64  c14.403-19.374,29.835-115.311,7.971-148.819C325.686,212.058,326.555,207.089,326.913,202.106z" data-original="#FFC82D" class="active-path" data-old_color="#FFC82D"/><path style="fill:#BA52E9" d="M234.716,308.789c-1.816,0-3.642-0.1-5.475-0.3c-8.456-0.927-14.559-8.534-13.632-16.988  c0.926-8.456,8.528-14.561,16.988-13.633c5.67,0.622,11.232-1.331,15.257-5.357c6.014-6.014,15.767-6.015,21.782-0.001  c6.015,6.015,6.015,15.767,0,21.783C260.275,303.657,247.781,308.789,234.716,308.789z" data-original="#FF6E23" class="" data-old_color="#FF6E23"/><path style="fill:#F788EE" d="M130.739,366.925c8.056,0,15.775-7.084,15.402-15.402c-0.374-8.345-6.768-15.402-15.402-15.402  c-8.056,0-15.775,7.084-15.402,15.402C115.711,359.868,122.105,366.925,130.739,366.925L130.739,366.925z" data-original="#FE9923" class="" data-old_color="#FE9923"/><path style="fill:#FFC82D" d="M190.232,201.904c-5.595,0-10.759-3.036-13.474-7.942L95.436,47.064  c-8.115-14.658-3.926-32.102,9.961-41.477c13.889-9.372,31.634-6.738,42.194,6.272c30.272,37.286,54.313,67.024,71.453,88.386  c10.124,12.618,17.951,22.451,23.262,29.227c2.938,3.747,5.105,6.557,6.627,8.588c2.94,3.924,6.272,8.373,5.046,15.193v0.001  c-6.812,37.842-44.527,48.369-63.518,48.648C190.384,201.903,190.307,201.904,190.232,201.904z" data-original="#D3F0FF" class="" data-old_color="#D3F0FF"/><path style="fill:#BA52E9" d="M259.635,188.725c-0.102-8.891,1.99-19.122,6.051-29.586c2.588-6.668,0.243-14.241-5.66-18.281  c-13.015-8.909-28.769-12.387-44.509-10.616v137.832c5.749-1.878,11.14-4.082,16.137-6.626c16.592-8.451,25.499-18.64,30.819-24.729  c0.979-1.119,2.196-2.513,2.661-2.932c5.832-5.266,6.764-14.08,2.163-20.449C262.249,206.347,259.743,198.297,259.635,188.725z" data-original="#FF6E23" class="" data-old_color="#FF6E23"/><path style="fill:#EB7D16" d="M242.307,129.473c-5.312-6.776-13.138-16.609-23.262-29.227c-1.143-1.425-2.323-2.894-3.527-4.393  v101.113c16.798-6.256,34.065-19.291,38.461-43.712v-0.001c1.226-6.82-2.105-11.268-5.046-15.193  C247.412,136.03,245.244,133.219,242.307,129.473z" data-original="#73C8EF" class="" data-old_color="#73C8EF"/></g> </svg>
